# xmcd
#
# Track frame offsets:
#	150
#	26281
#	52465
#	76771
#	93852
#	123713
#	144471
#	166822
#	188264
#	222947
#	240604
#	264980
#
# Disc length: 3826 seconds
#
# Revision: 1
# Processed by: cddbd v1.4PL0 Copyright (c) Steve Scherf et al.
# Submitted via: audiograbber 1.82.02
#
DISCID=980ef00c
DTITLE=이성원 - 동쪽산에
DYEAR=2002
DGENRE=Folk
TTITLE0=동쪽산에
TTITLE1=물동이 매고 이고
TTITLE2=님은 홀로인가
TTITLE3=구름타령
TTITLE4=문밖에 봄빛은
TTITLE5=밭
TTITLE6=휘몰이
TTITLE7=보아라 수야
TTITLE8=진주난봉가
TTITLE9=저기 강물이
TTITLE10=왜 여기에
TTITLE11=꿈같은 세월이여
EXTD=
EXTT0=
EXTT1=
EXTT2=
EXTT3=
EXTT4=
EXTT5=
EXTT6=
EXTT7=
EXTT8=
EXTT9=
EXTT10=
EXTT11=
PLAYORDER=
